<svg height="1040" width="1040" xmlns="http://www.w3.org/2000/svg">
<rect width="100%" height="100%" x="0" y="0" style="fill:white;stroke:white;stroke-width:0"/>
<g style="fill:white;stroke:black;stroke-width:1">
<rect width="925" height="925" x="60" y="60"/>
<polygon points="10,95 10,85 30,85 40,95 60,95 40,95 30,105 10,105 10,95"/>
<text x="65" y="85" dominant-baseline="hanging" text-anchor="start" font-size="20" style="fill:black;stroke:black;stroke-width:0">clk_i</text>
<polygon points="10,145 10,135 30,135 40,145 60,145 40,145 30,155 10,155 10,145"/>
<text x="65" y="135" dominant-baseline="hanging" text-anchor="start" font-size="20" style="fill:black;stroke:black;stroke-width:0">arst_ni</text>
<polygon points="10,245 10,235 30,235 40,245 60,245 40,245 30,255 10,255 10,245"/>
<text x="65" y="235" dominant-baseline="hanging" text-anchor="start" font-size="20" style="fill:black;stroke:black;stroke-width:0">valid_i</text>
<polygon points="10,295 20,285 40,285 40,295 60,295 40,295 40,305 20,305 10,295"/>
<text x="65" y="285" dominant-baseline="hanging" text-anchor="start" font-size="20" style="fill:black;stroke:black;stroke-width:0">ready_o</text>
<polygon points="10,345 10,335 30,335 40,345 60,345 40,345 30,355 10,355 10,345"/>
<text x="65" y="335" dominant-baseline="hanging" text-anchor="start" font-size="20" style="fill:black;stroke:black;stroke-width:0">MUL_i</text>
<polygon points="10,445 10,435 30,435 40,445 60,445 40,445 30,455 10,455 10,445"/>
<text x="65" y="435" dominant-baseline="hanging" text-anchor="start" font-size="20" style="fill:black;stroke:black;stroke-width:0">MULH_i</text>
<polygon points="10,545 10,535 30,535 40,545 60,545 40,545 30,555 10,555 10,545"/>
<text x="65" y="535" dominant-baseline="hanging" text-anchor="start" font-size="20" style="fill:black;stroke:black;stroke-width:0">MULHSU_i</text>
<polygon points="10,645 10,635 30,635 40,645 60,645 40,645 30,655 10,655 10,645"/>
<text x="65" y="635" dominant-baseline="hanging" text-anchor="start" font-size="20" style="fill:black;stroke:black;stroke-width:0">MULHU_i</text>
<polygon points="10,745 10,735 30,735 40,745 60,745 40,745 30,755 10,755 10,745"/>
<text x="65" y="735" dominant-baseline="hanging" text-anchor="start" font-size="20" style="fill:black;stroke:black;stroke-width:0">MUW_i</text>
<polygon points="10,845 10,835 30,835 40,845 60,845 40,845 30,855 10,855 10,845"/>
<text x="65" y="835" dominant-baseline="hanging" text-anchor="start" font-size="20" style="fill:black;stroke:black;stroke-width:0">ready_i</text>
<polygon points="10,945 10,935 30,935 40,945 60,945 40,945 30,955 10,955 10,945"/>
<text x="65" y="935" dominant-baseline="hanging" text-anchor="start" font-size="20" style="fill:black;stroke:black;stroke-width:0">rs1_i</text>
<polygon points="985,845 1005,845 1005,835 1025,835 1035,845 1025,855 1005,855 1005,845 985,845"/>
<text x="980" y="835" dominant-baseline="hanging" text-anchor="end" font-size="20" style="fill:black;stroke:black;stroke-width:0">valid_o</text>
<polygon points="985,945 1005,945 1015,935 1025,935 1035,945 1025,955 1015,955 1005,945 985,945"/>
<text x="980" y="935" dominant-baseline="hanging" text-anchor="end" font-size="20" style="fill:black;stroke:black;stroke-width:0">out</text>
<text x="520" y="1000" dominant-baseline="hanging" text-anchor="middle" font-size="30" style="fill:black;stroke:black;stroke-width:0">exe_mult</text>
</g>
</svg>
